<svg xmlns="http://www.w3.org/2000/svg" xmlns:xlink="http://www.w3.org/1999/xlink" width="972" height="916.98"><rect width="972" height="916.98" rx="5" ry="5" class="a"/><svg y="0%" x="0%"><circle cx="20" cy="20" r="6" fill="#ff5f58"/><circle cx="40" cy="20" r="6" fill="#ffbd2e"/><circle cx="60" cy="20" r="6" fill="#18c132"/></svg><svg height="824.98" viewBox="0 0 90 82.498" width="900" x="31" xmlns="http://www.w3.org/2000/svg" xmlns:xlink="http://www.w3.org/1999/xlink" y="66"><style>@keyframes p{0%{transform:translateX(-90px)}5.3%{transform:translateX(-180px)}5.6%{transform:translateX(-270px)}6.3%{transform:translateX(-360px)}6.8%{transform:translateX(-450px)}7.3%{transform:translateX(-540px)}7.7%{transform:translateX(-630px)}8%{transform:translateX(-720px)}8.6%{transform:translateX(-810px)}9.3%{transform:translateX(-900px)}10%{transform:translateX(-990px)}10.5%{transform:translateX(-1080px)}11%{transform:translateX(-1170px)}11.7%{transform:translateX(-1260px)}12%{transform:translateX(-1350px)}12.3%{transform:translateX(-1440px)}12.8%{transform:translateX(-1530px)}13.4%{transform:translateX(-1620px)}13.7%{transform:translateX(-1710px)}14.2%{transform:translateX(-1800px)}14.5%{transform:translateX(-1890px)}14.9%{transform:translateX(-1980px)}15.6%{transform:translateX(-2070px)}16.1%{transform:translateX(-2160px)}16.9%{transform:translateX(-2250px)}17.6%{transform:translateX(-2340px)}18.1%{transform:translateX(-2430px)}18.5%{transform:translateX(-2520px)}19.1%{transform:translateX(-2610px)}19.5%{transform:translateX(-2700px)}20.2%{transform:translateX(-2790px)}20.9%{transform:translateX(-2880px)}21.6%{transform:translateX(-2970px)}22%{transform:translateX(-3060px)}22.3%{transform:translateX(-3150px)}22.9%{transform:translateX(-3240px)}23.3%{transform:translateX(-3330px)}23.9%{transform:translateX(-3420px)}26.8%{transform:translateX(-3510px)}47.9%{transform:translateX(-3690px)}69%{transform:translateX(-3870px)}90.1%{transform:translateX(-4050px)}to{transform:translateX(-4140px)}}.a{fill:#282d35}.f,.g{fill:#b9c0cb;white-space:pre}.g{font-weight:700}.h,.i,.j,.k,.l,.m{fill:#66c2cd;white-space:pre}.i,.j,.k,.l,.m{fill:#e88388}.j,.k,.l,.m{fill:#a8cc8c}.k,.l,.m{fill:#d290e3}.l,.m{fill:#dbab79}.m{fill:#73bef3}</style><g font-family="Monaco,Consolas,Menlo,'Bitstream Vera Sans Mono','Powerline Symbols',monospace" font-size="1.67"><defs><symbol id="1"><text y="1.67" class="f">$</text></symbol><symbol id="2"><text y="1.67" class="f">$</text><text x="2.004" y="1.67" class="f">octowrap</text></symbol><symbol id="3"><text y="1.67" class="f">$</text><text x="2.004" y="1.67" class="f">octowrap</text><text x="11.022" y="1.67" class="f">-i</text></symbol><symbol id="4"><text y="1.67" class="f">$</text><text x="2.004" y="1.67" class="f">octowrap</text><text x="11.022" y="1.67" class="f">-i</text><text x="14.028" y="1.67" class="f">--line-length</text></symbol><symbol id="5"><text y="1.67" class="f">$</text><text x="2.004" y="1.67" class="f">octowrap</text><text x="11.022" y="1.67" class="f">-i</text><text x="14.028" y="1.67" class="f">--line-length</text><text x="28.056" y="1.67" class="f">88</text></symbol><symbol id="6"><text y="1.67" class="f">$</text><text x="2.004" y="1.67" class="f">octowrap</text><text x="11.022" y="1.67" class="f">-i</text><text x="14.028" y="1.67" class="f">--line-length</text><text x="28.056" y="1.67" class="f">88</text><text x="31.062" y="1.67" class="f">demo.py</text></symbol><symbol id="7"><text y="1.67" class="g">demo.py</text><text x="8.016" y="1.67" class="g">Lines</text><text x="14.028" y="1.67" class="g">4-4:</text><text x="19.038" y="1.67" class="h">[1/3]</text></symbol><symbol id="8"><text y="1.67" class="h">──────────────────────────────────────────────────────────────────────────────────────────</text></symbol><symbol id="9"><text y="1.67" class="i">-</text><text x="2.004" y="1.67" class="i">#</text><text x="4.008" y="1.67" class="i">Rewrap</text><text x="11.022" y="1.67" class="i">your</text><text x="16.032" y="1.67" class="i">Python</text><text x="23.046" y="1.67" class="i">comments</text><text x="32.064" y="1.67" class="i">to</text><text x="35.07" y="1.67" class="i">a</text><text x="37.074" y="1.67" class="i">configured</text><text x="48.096" y="1.67" class="i">line</text><text x="53.106" y="1.67" class="i">length</text><text x="60.12" y="1.67" class="i">while</text><text x="66.132" y="1.67" class="i">keeping</text><text x="74.148" y="1.67" class="i">commented-out</text><text x="88.176" y="1.67" class="i">co</text></symbol><symbol id="10"><text y="1.67" class="i">de,</text><text x="4.008" y="1.67" class="i">section</text><text x="12.024" y="1.67" class="i">dividers,</text><text x="22.044" y="1.67" class="i">TODO</text><text x="27.054" y="1.67" class="i">markers,</text><text x="36.072" y="1.67" class="i">and</text><text x="40.08" y="1.67" class="i">tool</text><text x="45.09" y="1.67" class="i">directives</text><text x="56.112" y="1.67" class="i">untouched</text><text x="66.132" y="1.67" class="i">and</text><text x="70.14" y="1.67" class="i">exactly</text><text x="78.156" y="1.67" class="i">where</text><text x="84.168" y="1.67" class="i">you</text><text x="88.176" y="1.67" class="i">pu</text></symbol><symbol id="11"><text y="1.67" class="i">t</text><text x="2.004" y="1.67" class="i">them.</text></symbol><symbol id="12"><text y="1.67" class="j">+</text><text x="2.004" y="1.67" class="j">#</text><text x="4.008" y="1.67" class="j">Rewrap</text><text x="11.022" y="1.67" class="j">your</text><text x="16.032" y="1.67" class="j">Python</text><text x="23.046" y="1.67" class="j">comments</text><text x="32.064" y="1.67" class="j">to</text><text x="35.07" y="1.67" class="j">a</text><text x="37.074" y="1.67" class="j">configured</text><text x="48.096" y="1.67" class="j">line</text><text x="53.106" y="1.67" class="j">length</text><text x="60.12" y="1.67" class="j">while</text><text x="66.132" y="1.67" class="j">keeping</text><text x="74.148" y="1.67" class="j">commented-out</text></symbol><symbol id="13"><text y="1.67" class="j">+</text><text x="2.004" y="1.67" class="j">#</text><text x="4.008" y="1.67" class="j">code,</text><text x="10.02" y="1.67" class="j">section</text><text x="18.036" y="1.67" class="j">dividers,</text><text x="28.056" y="1.67" class="j">TODO</text><text x="33.066" y="1.67" class="j">markers,</text><text x="42.084" y="1.67" class="j">and</text><text x="46.092" y="1.67" class="j">tool</text><text x="51.102" y="1.67" class="j">directives</text><text x="62.124" y="1.67" class="j">untouched</text><text x="72.144" y="1.67" class="j">and</text><text x="76.152" y="1.67" class="j">exactly</text><text x="84.168" y="1.67" class="j">where</text></symbol><symbol id="14"><text y="1.67" class="j">+</text><text x="2.004" y="1.67" class="j">#</text><text x="4.008" y="1.67" class="j">you</text><text x="8.016" y="1.67" class="j">put</text><text x="12.024" y="1.67" class="j">them.</text></symbol><symbol id="15"><text y="1.67" class="f">[</text><text x="1.002" y="1.67" class="j">a</text><text x="2.004" y="1.67" class="f">]ccept</text><text x="9.018" y="1.67" class="f">/</text><text x="11.022" y="1.67" class="f">[</text><text x="12.024" y="1.67" class="j">A</text><text x="13.026" y="1.67" class="f">]ccept</text><text x="20.04" y="1.67" class="f">all</text><text x="24.048" y="1.67" class="f">(current</text><text x="33.066" y="1.67" class="f">file)</text><text x="39.078" y="1.67" class="f">/</text><text x="41.082" y="1.67" class="f">[</text><text x="42.084" y="1.67" class="h">e</text><text x="43.086" y="1.67" class="f">]xclude</text><text x="51.102" y="1.67" class="f">/</text><text x="53.106" y="1.67" class="f">[</text><text x="54.108" y="1.67" class="k">f</text><text x="55.11" y="1.67" class="f">]lag</text><text x="60.12" y="1.67" class="f">/</text><text x="62.124" y="1.67" class="f">[</text><text x="63.126" y="1.67" class="l">s</text><text x="64.128" y="1.67" class="f">]kip</text><text x="69.138" y="1.67" class="f">/</text><text x="71.142" y="1.67" class="f">[</text><text x="72.144" y="1.67" class="i">q</text><text x="73.146" y="1.67" class="f">]uit?</text><text x="79.158" y="1.67" class="f">a</text></symbol><symbol id="16"><text y="1.67" class="g">demo.py</text><text x="8.016" y="1.67" class="g">Lines</text><text x="14.028" y="1.67" class="g">9-9:</text><text x="19.038" y="1.67" class="h">[2/3]</text></symbol><symbol id="17"><text y="1.67" class="i">-</text><text x="2.004" y="1.67" class="i">#</text><text x="4.008" y="1.67" class="i">TODO:</text><text x="10.02" y="1.67" class="i">implement</text><text x="20.04" y="1.67" class="i">once</text><text x="25.05" y="1.67" class="i">the</text><text x="29.058" y="1.67" class="i">websocket</text><text x="39.078" y="1.67" class="i">protocol</text><text x="48.096" y="1.67" class="i">stabilizes</text><text x="59.118" y="1.67" class="i">--</text><text x="62.124" y="1.67" class="i">waiting</text><text x="70.14" y="1.67" class="i">on</text><text x="73.146" y="1.67" class="i">the</text><text x="77.154" y="1.67" class="i">upstream</text><text x="86.172" y="1.67" class="i">spec</text></symbol><symbol id="18"><text x="1.002" y="1.67" class="i">PR</text><text x="4.008" y="1.67" class="i">before</text><text x="11.022" y="1.67" class="i">we</text><text x="14.028" y="1.67" class="i">commit</text><text x="21.042" y="1.67" class="i">to</text><text x="24.048" y="1.67" class="i">a</text><text x="26.052" y="1.67" class="i">wire</text><text x="31.062" y="1.67" class="i">format,</text><text x="39.078" y="1.67" class="i">since</text><text x="45.09" y="1.67" class="i">changing</text><text x="54.108" y="1.67" class="i">it</text><text x="57.114" y="1.67" class="i">later</text><text x="63.126" y="1.67" class="i">means</text><text x="69.138" y="1.67" class="i">coordinated</text><text x="81.162" y="1.67" class="i">client/se</text></symbol><symbol id="19"><text y="1.67" class="i">rver</text><text x="5.01" y="1.67" class="i">releases</text><text x="14.028" y="1.67" class="i">nobody</text><text x="21.042" y="1.67" class="i">wants</text><text x="27.054" y="1.67" class="i">to</text><text x="30.06" y="1.67" class="i">plan</text><text x="35.07" y="1.67" class="i">around.</text></symbol><symbol id="20"><text y="1.67" class="j">+</text><text x="2.004" y="1.67" class="j">#</text><text x="4.008" y="1.67" class="j">TODO:</text><text x="10.02" y="1.67" class="j">implement</text><text x="20.04" y="1.67" class="j">once</text><text x="25.05" y="1.67" class="j">the</text><text x="29.058" y="1.67" class="j">websocket</text><text x="39.078" y="1.67" class="j">protocol</text><text x="48.096" y="1.67" class="j">stabilizes</text><text x="59.118" y="1.67" class="j">--</text><text x="62.124" y="1.67" class="j">waiting</text><text x="70.14" y="1.67" class="j">on</text><text x="73.146" y="1.67" class="j">the</text><text x="77.154" y="1.67" class="j">upstream</text><text x="86.172" y="1.67" class="j">spec</text></symbol><symbol id="21"><text y="1.67" class="j">+</text><text x="2.004" y="1.67" class="j">#</text><text x="5.01" y="1.67" class="j">PR</text><text x="8.016" y="1.67" class="j">before</text><text x="15.03" y="1.67" class="j">we</text><text x="18.036" y="1.67" class="j">commit</text><text x="25.05" y="1.67" class="j">to</text><text x="28.056" y="1.67" class="j">a</text><text x="30.06" y="1.67" class="j">wire</text><text x="35.07" y="1.67" class="j">format,</text><text x="43.086" y="1.67" class="j">since</text><text x="49.098" y="1.67" class="j">changing</text><text x="58.116" y="1.67" class="j">it</text><text x="61.122" y="1.67" class="j">later</text><text x="67.134" y="1.67" class="j">means</text><text x="73.146" y="1.67" class="j">coordinated</text></symbol><symbol id="22"><text y="1.67" class="j">+</text><text x="2.004" y="1.67" class="j">#</text><text x="5.01" y="1.67" class="j">client/server</text><text x="19.038" y="1.67" class="j">releases</text><text x="28.056" y="1.67" class="j">nobody</text><text x="35.07" y="1.67" class="j">wants</text><text x="41.082" y="1.67" class="j">to</text><text x="44.088" y="1.67" class="j">plan</text><text x="49.098" y="1.67" class="j">around.</text></symbol><symbol id="23"><text y="1.67" class="f">[</text><text x="1.002" y="1.67" class="j">a</text><text x="2.004" y="1.67" class="f">]ccept</text><text x="9.018" y="1.67" class="f">/</text><text x="11.022" y="1.67" class="f">[</text><text x="12.024" y="1.67" class="j">A</text><text x="13.026" y="1.67" class="f">]ccept</text><text x="20.04" y="1.67" class="f">all</text><text x="24.048" y="1.67" class="f">(current</text><text x="33.066" y="1.67" class="f">file)</text><text x="39.078" y="1.67" class="f">/</text><text x="41.082" y="1.67" class="f">[</text><text x="42.084" y="1.67" class="h">e</text><text x="43.086" y="1.67" class="f">]xclude</text><text x="51.102" y="1.67" class="f">/</text><text x="53.106" y="1.67" class="f">[</text><text x="54.108" y="1.67" class="k">f</text><text x="55.11" y="1.67" class="f">]lag</text><text x="60.12" y="1.67" class="f">/</text><text x="62.124" y="1.67" class="f">[</text><text x="63.126" y="1.67" class="l">s</text><text x="64.128" y="1.67" class="f">]kip</text><text x="69.138" y="1.67" class="f">/</text><text x="71.142" y="1.67" class="f">[</text><text x="72.144" y="1.67" class="m">u</text><text x="73.146" y="1.67" class="f">]ndo</text><text x="78.156" y="1.67" class="f">/</text><text x="80.16" y="1.67" class="f">[</text><text x="81.162" y="1.67" class="i">q</text><text x="82.164" y="1.67" class="f">]uit?</text></symbol><symbol id="24"><text y="1.67" class="f">[</text><text x="1.002" y="1.67" class="j">a</text><text x="2.004" y="1.67" class="f">]ccept</text><text x="9.018" y="1.67" class="f">/</text><text x="11.022" y="1.67" class="f">[</text><text x="12.024" y="1.67" class="j">A</text><text x="13.026" y="1.67" class="f">]ccept</text><text x="20.04" y="1.67" class="f">all</text><text x="24.048" y="1.67" class="f">(current</text><text x="33.066" y="1.67" class="f">file)</text><text x="39.078" y="1.67" class="f">/</text><text x="41.082" y="1.67" class="f">[</text><text x="42.084" y="1.67" class="h">e</text><text x="43.086" y="1.67" class="f">]xclude</text><text x="51.102" y="1.67" class="f">/</text><text x="53.106" y="1.67" class="f">[</text><text x="54.108" y="1.67" class="k">f</text><text x="55.11" y="1.67" class="f">]lag</text><text x="60.12" y="1.67" class="f">/</text><text x="62.124" y="1.67" class="f">[</text><text x="63.126" y="1.67" class="l">s</text><text x="64.128" y="1.67" class="f">]kip</text><text x="69.138" y="1.67" class="f">/</text><text x="71.142" y="1.67" class="f">[</text><text x="72.144" y="1.67" class="m">u</text><text x="73.146" y="1.67" class="f">]ndo</text><text x="78.156" y="1.67" class="f">/</text><text x="80.16" y="1.67" class="f">[</text><text x="81.162" y="1.67" class="i">q</text><text x="82.164" y="1.67" class="f">]uit?</text><text x="88.176" y="1.67" class="f">a</text></symbol><symbol id="25"><text y="1.67" class="g">demo.py</text><text x="8.016" y="1.67" class="g">Lines</text><text x="14.028" y="1.67" class="g">15-15:</text><text x="21.042" y="1.67" class="h">[3/3]</text></symbol><symbol id="26"><text y="1.67" class="i">-</text><text x="6.012" y="1.67" class="i">return</text><text x="13.026" y="1.67" class="i">a</text><text x="15.03" y="1.67" class="i">+</text><text x="17.034" y="1.67" class="i">b</text><text x="20.04" y="1.67" class="i">#</text><text x="22.044" y="1.67" class="i">use</text><text x="26.052" y="1.67" class="i">the</text><text x="30.06" y="1.67" class="i">+</text><text x="32.064" y="1.67" class="i">operator</text><text x="41.082" y="1.67" class="i">rather</text><text x="48.096" y="1.67" class="i">than</text><text x="53.106" y="1.67" class="i">operator.add</text><text x="66.132" y="1.67" class="i">so</text><text x="69.138" y="1.67" class="i">the</text><text x="73.146" y="1.67" class="i">traceback</text><text x="83.166" y="1.67" class="i">points</text></symbol><symbol id="27"><text y="1.67" class="i">at</text><text x="3.006" y="1.67" class="i">this</text><text x="8.016" y="1.67" class="i">line</text><text x="13.026" y="1.67" class="i">if</text><text x="16.032" y="1.67" class="i">a</text><text x="18.036" y="1.67" class="i">or</text><text x="21.042" y="1.67" class="i">b</text><text x="23.046" y="1.67" class="i">are</text><text x="27.054" y="1.67" class="i">the</text><text x="31.062" y="1.67" class="i">wrong</text><text x="37.074" y="1.67" class="i">type,</text><text x="43.086" y="1.67" class="i">instead</text><text x="51.102" y="1.67" class="i">of</text><text x="54.108" y="1.67" class="i">vanishing</text><text x="64.128" y="1.67" class="i">into</text><text x="69.138" y="1.67" class="i">the</text><text x="73.146" y="1.67" class="i">operator</text><text x="82.164" y="1.67" class="i">module</text></symbol><symbol id="28"><text y="1.67" class="j">+</text><text x="6.012" y="1.67" class="j">#</text><text x="8.016" y="1.67" class="j">use</text><text x="12.024" y="1.67" class="j">the</text><text x="16.032" y="1.67" class="j">+</text><text x="18.036" y="1.67" class="j">operator</text><text x="27.054" y="1.67" class="j">rather</text><text x="34.068" y="1.67" class="j">than</text><text x="39.078" y="1.67" class="j">operator.add</text><text x="52.104" y="1.67" class="j">so</text><text x="55.11" y="1.67" class="j">the</text><text x="59.118" y="1.67" class="j">traceback</text><text x="69.138" y="1.67" class="j">points</text><text x="76.152" y="1.67" class="j">at</text><text x="79.158" y="1.67" class="j">this</text><text x="84.168" y="1.67" class="j">line</text></symbol><symbol id="29"><text y="1.67" class="j">+</text><text x="6.012" y="1.67" class="j">#</text><text x="8.016" y="1.67" class="j">if</text><text x="11.022" y="1.67" class="j">a</text><text x="13.026" y="1.67" class="j">or</text><text x="16.032" y="1.67" class="j">b</text><text x="18.036" y="1.67" class="j">are</text><text x="22.044" y="1.67" class="j">the</text><text x="26.052" y="1.67" class="j">wrong</text><text x="32.064" y="1.67" class="j">type,</text><text x="38.076" y="1.67" class="j">instead</text><text x="46.092" y="1.67" class="j">of</text><text x="49.098" y="1.67" class="j">vanishing</text><text x="59.118" y="1.67" class="j">into</text><text x="64.128" y="1.67" class="j">the</text><text x="68.136" y="1.67" class="j">operator</text><text x="77.154" y="1.67" class="j">module</text></symbol><symbol id="30"><text y="1.67" class="j">+</text><text x="6.012" y="1.67" class="j">return</text><text x="13.026" y="1.67" class="j">a</text><text x="15.03" y="1.67" class="j">+</text><text x="17.034" y="1.67" class="j">b</text></symbol><symbol id="31"><text y="1.67" class="f">Reformatted:</text><text x="13.026" y="1.67" class="f">demo.py</text></symbol><symbol id="32"><text y="1.67" class="f">1</text><text x="2.004" y="1.67" class="f">file(s)</text><text x="10.02" y="1.67" class="f">reformatted.</text></symbol><symbol id="a"><path fill="transparent" d="M0 0h90v38H0z"/></symbol><symbol id="b"><path fill="#6f7683" d="M0 0h1.102v2.171H0z"/></symbol></defs><path class="a" d="M0 0h90v82.498H0z"/><g style="animation-duration:15.161978s;animation-iteration-count:infinite;animation-name:p;animation-timing-function:steps(1,end)"><svg width="4230"><svg><use xlink:href="#a"/><use xlink:href="#b" x="-.004"/></svg><svg x="90"><use xlink:href="#a"/><use xlink:href="#b" x="1.996"/><use xlink:href="#1"/></svg><svg x="180"><use xlink:href="#a"/><use xlink:href="#b" x="2.996"/><text y="1.67" class="f">$</text><text x="2.004" y="1.67" class="f">o</text></svg><svg x="270"><use xlink:href="#a"/><use xlink:href="#b" x="3.996"/><text y="1.67" class="f">$</text><text x="2.004" y="1.67" class="f">oc</text></svg><svg x="360"><use xlink:href="#a"/><use xlink:href="#b" x="4.996"/><text y="1.67" class="f">$</text><text x="2.004" y="1.67" class="f">oct</text></svg><svg x="450"><use xlink:href="#a"/><use xlink:href="#b" x="5.996"/><text y="1.67" class="f">$</text><text x="2.004" y="1.67" class="f">octo</text></svg><svg x="540"><use xlink:href="#a"/><use xlink:href="#b" x="6.996"/><text y="1.67" class="f">$</text><text x="2.004" y="1.67" class="f">octow</text></svg><svg x="630"><use xlink:href="#a"/><use xlink:href="#b" x="7.996"/><text y="1.67" class="f">$</text><text x="2.004" y="1.67" class="f">octowr</text></svg><svg x="720"><use xlink:href="#a"/><use xlink:href="#b" x="8.996"/><text y="1.67" class="f">$</text><text x="2.004" y="1.67" class="f">octowra</text></svg><svg x="810"><use xlink:href="#a"/><use xlink:href="#b" x="9.996"/><use xlink:href="#2"/></svg><svg x="900"><use xlink:href="#a"/><use xlink:href="#b" x="10.996"/><use xlink:href="#2"/></svg><svg x="990"><use xlink:href="#a"/><use xlink:href="#b" x="11.996"/><text y="1.67" class="f">$</text><text x="2.004" y="1.67" class="f">octowrap</text><text x="11.022" y="1.67" class="f">-</text></svg><svg x="1080"><use xlink:href="#a"/><use xlink:href="#b" x="12.996"/><use xlink:href="#3"/></svg><svg x="1170"><use xlink:href="#a"/><use xlink:href="#b" x="13.996"/><use xlink:href="#3"/></svg><svg x="1260"><use xlink:href="#a"/><use xlink:href="#b" x="14.996"/><text y="1.67" class="f">$</text><text x="2.004" y="1.67" class="f">octowrap</text><text x="11.022" y="1.67" class="f">-i</text><text x="14.028" y="1.67" class="f">-</text></svg><svg x="1350"><use xlink:href="#a"/><use xlink:href="#b" x="15.996"/><text y="1.67" class="f">$</text><text x="2.004" y="1.67" class="f">octowrap</text><text x="11.022" y="1.67" class="f">-i</text><text x="14.028" y="1.67" class="f">--</text></svg><svg x="1440"><use xlink:href="#a"/><use xlink:href="#b" x="16.996"/><text y="1.67" class="f">$</text><text x="2.004" y="1.67" class="f">octowrap</text><text x="11.022" y="1.67" class="f">-i</text><text x="14.028" y="1.67" class="f">--l</text></svg><svg x="1530"><use xlink:href="#a"/><use xlink:href="#b" x="17.996"/><text y="1.67" class="f">$</text><text x="2.004" y="1.67" class="f">octowrap</text><text x="11.022" y="1.67" class="f">-i</text><text x="14.028" y="1.67" class="f">--li</text></svg><svg x="1620"><use xlink:href="#a"/><use xlink:href="#b" x="18.996"/><text y="1.67" class="f">$</text><text x="2.004" y="1.67" class="f">octowrap</text><text x="11.022" y="1.67" class="f">-i</text><text x="14.028" y="1.67" class="f">--lin</text></svg><svg x="1710"><use xlink:href="#a"/><use xlink:href="#b" x="19.996"/><text y="1.67" class="f">$</text><text x="2.004" y="1.67" class="f">octowrap</text><text x="11.022" y="1.67" class="f">-i</text><text x="14.028" y="1.67" class="f">--line</text></svg><svg x="1800"><use xlink:href="#a"/><use xlink:href="#b" x="20.996"/><text y="1.67" class="f">$</text><text x="2.004" y="1.67" class="f">octowrap</text><text x="11.022" y="1.67" class="f">-i</text><text x="14.028" y="1.67" class="f">--line-</text></svg><svg x="1890"><use xlink:href="#a"/><use xlink:href="#b" x="21.996"/><text y="1.67" class="f">$</text><text x="2.004" y="1.67" class="f">octowrap</text><text x="11.022" y="1.67" class="f">-i</text><text x="14.028" y="1.67" class="f">--line-l</text></svg><svg x="1980"><use xlink:href="#a"/><use xlink:href="#b" x="22.996"/><text y="1.67" class="f">$</text><text x="2.004" y="1.67" class="f">octowrap</text><text x="11.022" y="1.67" class="f">-i</text><text x="14.028" y="1.67" class="f">--line-le</text></svg><svg x="2070"><use xlink:href="#a"/><use xlink:href="#b" x="23.996"/><text y="1.67" class="f">$</text><text x="2.004" y="1.67" class="f">octowrap</text><text x="11.022" y="1.67" class="f">-i</text><text x="14.028" y="1.67" class="f">--line-len</text></svg><svg x="2160"><use xlink:href="#a"/><use xlink:href="#b" x="24.996"/><text y="1.67" class="f">$</text><text x="2.004" y="1.67" class="f">octowrap</text><text x="11.022" y="1.67" class="f">-i</text><text x="14.028" y="1.67" class="f">--line-leng</text></svg><svg x="2250"><use xlink:href="#a"/><use xlink:href="#b" x="25.996"/><text y="1.67" class="f">$</text><text x="2.004" y="1.67" class="f">octowrap</text><text x="11.022" y="1.67" class="f">-i</text><text x="14.028" y="1.67" class="f">--line-lengt</text></svg><svg x="2340"><use xlink:href="#a"/><use xlink:href="#b" x="26.996"/><use xlink:href="#4"/></svg><svg x="2430"><use xlink:href="#a"/><use xlink:href="#b" x="27.996"/><use xlink:href="#4"/></svg><svg x="2520"><use xlink:href="#a"/><use xlink:href="#b" x="28.996"/><text y="1.67" class="f">$</text><text x="2.004" y="1.67" class="f">octowrap</text><text x="11.022" y="1.67" class="f">-i</text><text x="14.028" y="1.67" class="f">--line-length</text><text x="28.056" y="1.67" class="f">8</text></svg><svg x="2610"><use xlink:href="#a"/><use xlink:href="#b" x="29.996"/><use xlink:href="#5"/></svg><svg x="2700"><use xlink:href="#a"/><use xlink:href="#b" x="30.996"/><use xlink:href="#5"/></svg><svg x="2790"><use xlink:href="#a"/><use xlink:href="#b" x="31.996"/><text y="1.67" class="f">$</text><text x="2.004" y="1.67" class="f">octowrap</text><text x="11.022" y="1.67" class="f">-i</text><text x="14.028" y="1.67" class="f">--line-length</text><text x="28.056" y="1.67" class="f">88</text><text x="31.062" y="1.67" class="f">d</text></svg><svg x="2880"><use xlink:href="#a"/><use xlink:href="#b" x="32.996"/><text y="1.67" class="f">$</text><text x="2.004" y="1.67" class="f">octowrap</text><text x="11.022" y="1.67" class="f">-i</text><text x="14.028" y="1.67" class="f">--line-length</text><text x="28.056" y="1.67" class="f">88</text><text x="31.062" y="1.67" class="f">de</text></svg><svg x="2970"><use xlink:href="#a"/><use xlink:href="#b" x="33.996"/><text y="1.67" class="f">$</text><text x="2.004" y="1.67" class="f">octowrap</text><text x="11.022" y="1.67" class="f">-i</text><text x="14.028" y="1.67" class="f">--line-length</text><text x="28.056" y="1.67" class="f">88</text><text x="31.062" y="1.67" class="f">dem</text></svg><svg x="3060"><use xlink:href="#a"/><use xlink:href="#b" x="34.996"/><text y="1.67" class="f">$</text><text x="2.004" y="1.67" class="f">octowrap</text><text x="11.022" y="1.67" class="f">-i</text><text x="14.028" y="1.67" class="f">--line-length</text><text x="28.056" y="1.67" class="f">88</text><text x="31.062" y="1.67" class="f">demo</text></svg><svg x="3150"><use xlink:href="#a"/><use xlink:href="#b" x="35.996"/><text y="1.67" class="f">$</text><text x="2.004" y="1.67" class="f">octowrap</text><text x="11.022" y="1.67" class="f">-i</text><text x="14.028" y="1.67" class="f">--line-length</text><text x="28.056" y="1.67" class="f">88</text><text x="31.062" y="1.67" class="f">demo.</text></svg><svg x="3240"><use xlink:href="#a"/><use xlink:href="#b" x="36.996"/><text y="1.67" class="f">$</text><text x="2.004" y="1.67" class="f">octowrap</text><text x="11.022" y="1.67" class="f">-i</text><text x="14.028" y="1.67" class="f">--line-length</text><text x="28.056" y="1.67" class="f">88</text><text x="31.062" y="1.67" class="f">demo.p</text></svg><svg x="3330"><use xlink:href="#a"/><use xlink:href="#b" x="37.996"/><use xlink:href="#6"/></svg><svg x="3420"><use xlink:href="#a"/><use xlink:href="#b" x="-.004" y="2.146"/><use xlink:href="#6"/></svg><svg x="3510"><use xlink:href="#a"/><use xlink:href="#b" x="78.996" y="23.856"/><use xlink:href="#6"/><use xlink:href="#7" y="4.342"/><use xlink:href="#8" y="6.513"/><use xlink:href="#9" y="8.684"/><use xlink:href="#10" y="10.855"/><use xlink:href="#11" y="13.026"/><use xlink:href="#12" y="15.197"/><use xlink:href="#13" y="17.368"/><use xlink:href="#14" y="19.539"/><use xlink:href="#8" y="21.71"/><text y="25.551" class="f">[</text><text x="1.002" y="25.551" class="j">a</text><text x="2.004" y="25.551" class="f">]ccept</text><text x="9.018" y="25.551" class="f">/</text><text x="11.022" y="25.551" class="f">[</text><text x="12.024" y="25.551" class="j">A</text><text x="13.026" y="25.551" class="f">]ccept</text><text x="20.04" y="25.551" class="f">all</text><text x="24.048" y="25.551" class="f">(current</text><text x="33.066" y="25.551" class="f">file)</text><text x="39.078" y="25.551" class="f">/</text><text x="41.082" y="25.551" class="f">[</text><text x="42.084" y="25.551" class="h">e</text><text x="43.086" y="25.551" class="f">]xclude</text><text x="51.102" y="25.551" class="f">/</text><text x="53.106" y="25.551" class="f">[</text><text x="54.108" y="25.551" class="k">f</text><text x="55.11" y="25.551" class="f">]lag</text><text x="60.12" y="25.551" class="f">/</text><text x="62.124" y="25.551" class="f">[</text><text x="63.126" y="25.551" class="l">s</text><text x="64.128" y="25.551" class="f">]kip</text><text x="69.138" y="25.551" class="f">/</text><text x="71.142" y="25.551" class="f">[</text><text x="72.144" y="25.551" class="i">q</text><text x="73.146" y="25.551" class="f">]uit?</text></svg><svg x="3600"><use xlink:href="#a"/><use xlink:href="#b" x="-.004" y="26.027"/><use xlink:href="#6"/><use xlink:href="#7" y="4.342"/><use xlink:href="#8" y="6.513"/><use xlink:href="#9" y="8.684"/><use xlink:href="#10" y="10.855"/><use xlink:href="#11" y="13.026"/><use xlink:href="#12" y="15.197"/><use xlink:href="#13" y="17.368"/><use xlink:href="#14" y="19.539"/><use xlink:href="#8" y="21.71"/><use xlink:href="#15" y="23.881"/></svg><svg x="3690"><use xlink:href="#a"/><use xlink:href="#b" x="87.996" y="47.737"/><use xlink:href="#6"/><use xlink:href="#7" y="4.342"/><use xlink:href="#8" y="6.513"/><use xlink:href="#9" y="8.684"/><use xlink:href="#10" y="10.855"/><use xlink:href="#11" y="13.026"/><use xlink:href="#12" y="15.197"/><use xlink:href="#13" y="17.368"/><use xlink:href="#14" y="19.539"/><use xlink:href="#8" y="21.71"/><use xlink:href="#15" y="23.881"/><use xlink:href="#16" y="28.223"/><use xlink:href="#8" y="30.394"/><use xlink:href="#17" y="32.565"/><use xlink:href="#18" y="34.736"/><use xlink:href="#19" y="36.907"/><use xlink:href="#20" y="39.078"/><use xlink:href="#21" y="41.249"/><use xlink:href="#22" y="43.42"/><use xlink:href="#8" y="45.591"/><use xlink:href="#23" y="47.762"/></svg><svg x="3780"><use xlink:href="#a"/><use xlink:href="#b" x="-.004" y="49.908"/><use xlink:href="#6"/><use xlink:href="#7" y="4.342"/><use xlink:href="#8" y="6.513"/><use xlink:href="#9" y="8.684"/><use xlink:href="#10" y="10.855"/><use xlink:href="#11" y="13.026"/><use xlink:href="#12" y="15.197"/><use xlink:href="#13" y="17.368"/><use xlink:href="#14" y="19.539"/><use xlink:href="#8" y="21.71"/><use xlink:href="#15" y="23.881"/><use xlink:href="#16" y="28.223"/><use xlink:href="#8" y="30.394"/><use xlink:href="#17" y="32.565"/><use xlink:href="#18" y="34.736"/><use xlink:href="#19" y="36.907"/><use xlink:href="#20" y="39.078"/><use xlink:href="#21" y="41.249"/><use xlink:href="#22" y="43.42"/><use xlink:href="#8" y="45.591"/><use xlink:href="#24" y="47.762"/></svg><svg x="3870"><use xlink:href="#a"/><use xlink:href="#b" x="87.996" y="69.447"/><use xlink:href="#6"/><use xlink:href="#7" y="4.342"/><use xlink:href="#8" y="6.513"/><use xlink:href="#9" y="8.684"/><use xlink:href="#10" y="10.855"/><use xlink:href="#11" y="13.026"/><use xlink:href="#12" y="15.197"/><use xlink:href="#13" y="17.368"/><use xlink:href="#14" y="19.539"/><use xlink:href="#8" y="21.71"/><use xlink:href="#15" y="23.881"/><use xlink:href="#16" y="28.223"/><use xlink:href="#8" y="30.394"/><use xlink:href="#17" y="32.565"/><use xlink:href="#18" y="34.736"/><use xlink:href="#19" y="36.907"/><use xlink:href="#20" y="39.078"/><use xlink:href="#21" y="41.249"/><use xlink:href="#22" y="43.42"/><use xlink:href="#8" y="45.591"/><use xlink:href="#24" y="47.762"/><use xlink:href="#25" y="52.104"/><use xlink:href="#8" y="54.275"/><use xlink:href="#26" y="56.446"/><use xlink:href="#27" y="58.617"/><use xlink:href="#28" y="60.788"/><use xlink:href="#29" y="62.959"/><use xlink:href="#30" y="65.13"/><use xlink:href="#8" y="67.301"/><use xlink:href="#23" y="69.472"/></svg><svg x="3960"><use xlink:href="#a"/><use xlink:href="#b" x="-.004" y="71.618"/><use xlink:href="#6"/><use xlink:href="#7" y="4.342"/><use xlink:href="#8" y="6.513"/><use xlink:href="#9" y="8.684"/><use xlink:href="#10" y="10.855"/><use xlink:href="#11" y="13.026"/><use xlink:href="#12" y="15.197"/><use xlink:href="#13" y="17.368"/><use xlink:href="#14" y="19.539"/><use xlink:href="#8" y="21.71"/><use xlink:href="#15" y="23.881"/><use xlink:href="#16" y="28.223"/><use xlink:href="#8" y="30.394"/><use xlink:href="#17" y="32.565"/><use xlink:href="#18" y="34.736"/><use xlink:href="#19" y="36.907"/><use xlink:href="#20" y="39.078"/><use xlink:href="#21" y="41.249"/><use xlink:href="#22" y="43.42"/><use xlink:href="#8" y="45.591"/><use xlink:href="#24" y="47.762"/><use xlink:href="#25" y="52.104"/><use xlink:href="#8" y="54.275"/><use xlink:href="#26" y="56.446"/><use xlink:href="#27" y="58.617"/><use xlink:href="#28" y="60.788"/><use xlink:href="#29" y="62.959"/><use xlink:href="#30" y="65.13"/><use xlink:href="#8" y="67.301"/><use xlink:href="#24" y="69.472"/></svg><svg x="4050"><use xlink:href="#a"/><use xlink:href="#b" x="1.996" y="78.131"/><use xlink:href="#6"/><use xlink:href="#7" y="4.342"/><use xlink:href="#8" y="6.513"/><use xlink:href="#9" y="8.684"/><use xlink:href="#10" y="10.855"/><use xlink:href="#11" y="13.026"/><use xlink:href="#12" y="15.197"/><use xlink:href="#13" y="17.368"/><use xlink:href="#14" y="19.539"/><use xlink:href="#8" y="21.71"/><use xlink:href="#15" y="23.881"/><use xlink:href="#16" y="28.223"/><use xlink:href="#8" y="30.394"/><use xlink:href="#17" y="32.565"/><use xlink:href="#18" y="34.736"/><use xlink:href="#19" y="36.907"/><use xlink:href="#20" y="39.078"/><use xlink:href="#21" y="41.249"/><use xlink:href="#22" y="43.42"/><use xlink:href="#8" y="45.591"/><use xlink:href="#24" y="47.762"/><use xlink:href="#25" y="52.104"/><use xlink:href="#8" y="54.275"/><use xlink:href="#26" y="56.446"/><use xlink:href="#27" y="58.617"/><use xlink:href="#28" y="60.788"/><use xlink:href="#29" y="62.959"/><use xlink:href="#30" y="65.13"/><use xlink:href="#8" y="67.301"/><use xlink:href="#24" y="69.472"/><use xlink:href="#31" y="71.643"/><use xlink:href="#32" y="75.985"/><use xlink:href="#1" y="78.156"/></svg><svg x="4140"><use xlink:href="#a"/><use xlink:href="#b" x="1.996" y="78.131"/><use xlink:href="#6"/><use xlink:href="#7" y="4.342"/><use xlink:href="#8" y="6.513"/><use xlink:href="#9" y="8.684"/><use xlink:href="#10" y="10.855"/><use xlink:href="#11" y="13.026"/><use xlink:href="#12" y="15.197"/><use xlink:href="#13" y="17.368"/><use xlink:href="#14" y="19.539"/><use xlink:href="#8" y="21.71"/><use xlink:href="#15" y="23.881"/><use xlink:href="#16" y="28.223"/><use xlink:href="#8" y="30.394"/><use xlink:href="#17" y="32.565"/><use xlink:href="#18" y="34.736"/><use xlink:href="#19" y="36.907"/><use xlink:href="#20" y="39.078"/><use xlink:href="#21" y="41.249"/><use xlink:href="#22" y="43.42"/><use xlink:href="#8" y="45.591"/><use xlink:href="#24" y="47.762"/><use xlink:href="#25" y="52.104"/><use xlink:href="#8" y="54.275"/><use xlink:href="#26" y="56.446"/><use xlink:href="#27" y="58.617"/><use xlink:href="#28" y="60.788"/><use xlink:href="#29" y="62.959"/><use xlink:href="#30" y="65.13"/><use xlink:href="#8" y="67.301"/><use xlink:href="#24" y="69.472"/><use xlink:href="#31" y="71.643"/><use xlink:href="#32" y="75.985"/><use xlink:href="#1" y="78.156"/></svg></svg></g></g></svg></svg>